# Blender v2.79 (sub 0) OBJ File: 'Buttons.blend'
# www.blender.org
mtllib Button.mtl
g KeyboardKey_0.1_2to1.001_Cube.027
v 1.592520 -0.500000 -1.000000
v 1.592520 -0.500000 1.000000
v -1.286427 -0.500000 1.000000
v -1.286427 -0.500000 -1.000000
v 1.234172 0.500000 -0.719721
v 1.359388 0.402396 -0.837317
v 1.234172 0.500000 0.563583
v 1.359388 0.402396 0.696419
v -0.928080 0.500000 0.563583
v -1.053296 0.402396 0.696418
v -0.928079 0.500000 -0.719721
v -1.053295 0.402396 -0.837317
v 0.965709 -0.500000 -1.000000
v 0.965708 -0.500000 1.000000
v 0.824221 0.402396 -0.837317
v 0.748227 0.500000 -0.719721
v 0.748226 0.500000 0.563583
v 0.824220 0.402396 0.696419
v -0.806825 -0.500000 -1.000000
v -0.806825 -0.500000 1.000000
v -0.591770 0.402396 -0.837317
v -0.544973 0.500000 0.563583
v -0.544973 0.500000 -0.719721
v -0.593446 0.402396 0.696419
v -0.741170 -0.048802 -0.918659
v -0.566086 0.451198 0.630001
v -0.565680 0.451198 -0.778519
v -0.650469 0.500000 -0.078069
v -0.745234 -0.048802 0.848209
v -0.860088 -0.500000 -0.000000
v 0.748227 0.500000 0.303640
v 0.748227 0.500000 -0.462621
v 0.690220 0.322600 -0.386752
v 0.690219 0.322600 0.227918
v -0.445230 0.322600 -0.078277
v 0.748227 0.322600 -0.462621
v 0.748227 0.322600 0.303640
v -0.654334 0.322600 -0.078069
v 0.748227 0.596737 -0.462621
v 0.748227 0.596737 0.303640
v -0.651674 0.596737 -0.078069
v 0.690220 0.596737 -0.386752
v 0.690219 0.596737 0.227918
v -0.445230 0.596737 -0.078277
vn 0.0000 -1.0000 0.0000
vn -0.0000 0.3189 0.9478
vn 0.0000 1.0000 0.0000
vn -0.9682 0.2501 -0.0000
vn 0.9682 0.2501 0.0000
vn 0.6148 0.7887 0.0000
vn 0.0000 0.7695 -0.6387
vn -0.0000 0.8059 0.5921
vn -0.6148 0.7887 -0.0000
vn 0.0000 0.1774 -0.9841
vn 0.2629 -0.0029 -0.9648
vn 0.2648 -0.0029 0.9643
vn -1.0000 0.0000 -0.0000
vn 0.2604 0.0000 -0.9655
vn -0.2647 0.0013 -0.9643
vn -0.2628 0.0013 0.9648
vn 1.0000 0.0000 0.0000
vn 0.2622 0.0000 0.9650
usemtl Material
s off
f 19//1 30//1 20//1 3//1 4//1
f 20//2 29//2 24//2 10//2 3//2
f 23//3 11//3 9//3 22//3 28//3
f 3//4 10//4 12//4 4//4
f 1//5 6//5 8//5 2//5
f 5//6 7//6 8//6 6//6
f 21//7 12//7 11//7 23//7 27//7
f 22//8 9//8 10//8 24//8 26//8
f 9//9 11//9 12//9 10//9
f 21//10 25//10 19//10 4//10 12//10
f 6//10 1//10 13//10 15//10
f 7//8 17//8 18//8 8//8
f 6//7 15//7 16//7 5//7
f 5//3 16//3 32//3 31//3 17//3 7//3
f 2//2 8//2 18//2 14//2
f 1//1 2//1 14//1 13//1
f 15//10 13//10 19//10 25//10 21//10
f 17//8 22//8 26//8 24//8 18//8
f 15//7 21//7 27//7 23//7 16//7
f 14//2 18//2 24//2 29//2 20//2
f 13//1 14//1 20//1 30//1 19//1
f 31//11 37//11 38//11 28//11
f 28//12 38//12 36//12 32//12
f 32//13 36//13 37//13 31//13
f 16//3 23//3 28//3 32//3
f 17//3 31//3 28//3 22//3
f 33//13 34//13 43//13 42//13
f 34//14 35//14 44//14 43//14
f 36//15 38//15 41//15 39//15
f 42//3 43//3 40//3 39//3
f 44//3 42//3 39//3 41//3
f 43//3 44//3 41//3 40//3
f 38//16 37//16 40//16 41//16
f 37//17 36//17 39//17 40//17
f 35//18 33//18 42//18 44//18
g KeyboardKey_0.1_2to1_Cube.012
v 0.690220 0.322600 -0.386752
v 0.690219 0.322600 0.227918
v -0.445230 0.322600 -0.078277
vn 0.0000 1.0000 -0.0000
usemtl Material
s off
f 47//19 46//19 45//19
